<?xml version="1.0" encoding="UTF-8" standalone="no"?>
<svg
      xmlns="http://www.w3.org/2000/svg"
      width="1184"
      height="414"
      version="1.1"
      viewBox="0 0 313.267 109.537"
      xmlSpace="preserve"
    >
      <g fill="none" stroke="#000" strokeWidth="1.323">
        <path d="M71.73 47.414c.776-2.587.125-5.175-.562-7.762-1.624-3.214-5.016-3.925-5.798-6.079"></path>
        <path d="M65.837 36.005c3.196-.196 6.019-.817 7.482-2.993 1.796-1.41 3.754-.703 5.798 1.122"></path>
        <path d="M73.506 48.536c-5.53-2.423-11.077-5.161-16.366-2.992"></path>
        <path d="M83.606 46.198l-5.424-1.776"></path>
        <path d="M77.247 45.637c-1.122.67-2.934.625-3.086 2.993"></path>
        <path d="M79.865 47.227l-2.618 1.59"></path>
        <path d="M76.499 42.27c-.45-2.652-2.762-2.165-2.525-5.423"></path>
        <path d="M76.592 36.94c.929.98 1.979 1.889 1.216 3.834l2.15-3.46"></path>
        <path d="M82.203 41.429c1.426.255 1.546 1.38 1.497 2.619"></path>
        <path d="M85.29 45.918c2.257-.015 3.644-.527 2.431-2.525-.484-1.073-1.06-2.162-.094-2.993"></path>
        <path d="M59.572 44.515l-2.245-6.546"></path>
        <path d="M60.413 42.27c-2.008-3.9-4.637-7.992-3.553-10.941-.527-5.088 2.236-5.091 4.302-6.172 1.845-3.105 5.875-4.268 9.913-5.424 3.317-.551 6.55-1.778 10.1-.468 4.257 1.652 3.71 3.304 4.489 4.956-1.83-.526-3.786-1.497-5.144-.374"></path>
        <path d="M79.304 24.783c-4.877-2.963-4.472 5.024-9.258 2.525"></path>
        <path d="M78.93 26.56c-5.832 1.787-.577 3.916-8.604 5.704"></path>
        <path d="M83.513 28.336c2.303 2.556 3.987 3.045 7.668 10.194 1.25 3.038 1.993 5.865.28 7.668"></path>
        <path d="M86.412 25.344l4.77-.468c5.572-3.452 12.478-5.274 20.293-5.985 11.122-.754 23.038 5.113 34.882 10.38"></path>
        <path d="M115.31 31.048c2.84 2.74 6.42 5.256 6.92 8.698 4.115 7.566.687 5.815.935 8.603"></path>
        <path d="M123.913 45.263c-3.716-4.42-6.522-5.427-9.259-6.172-5.052.27-9.94 1.2-14.495 3.46-2.292.337-4.41-1.251-6.453-3.647-1.148-4.216-.615-7.498.468-10.474 2.463-3.442 5.566-5.721 10.755-4.209"></path>
        <path d="M108.015 24.69c2.848 3.22 7.097 5.32 12.438 6.545 5.753 2.907 10.45 11.096 15.524 17.395"></path>
        <path d="M118.021 41.523c2.769 2.507 3.025 5.957 3.928 9.164-.038 3.575-1.006 6.591-5.985 7.201-7.232 0-13.993-.629-19.733-2.618-5.803-1.132-12.157-.979-18.704-.374-.912 1.617-2.985 2.653-5.891 3.273l-11.41-1.122c-3.933-.624-6.417 2.052-9.165 3.74.727-2.259.648-4.429 3.46-6.92l5.238-1.87c3.2.795 6.106-.776 9.071-1.87 2.209-.626 5.765-.802 9.446-.936 4.78.533 8.972-1.584 13.28-3.18h11.315l-2.806-3.834"></path>
        <path d="M102.871 45.17c4.053-1.147 8.105-2.007 12.158.28"></path>
        <path d="M59.291 54.241c-2.095.574-4.329 1.426-6.92 2.993"></path>
        <path d="M131.768 22.725c5.515 1.494 12.91-1.844 20.107-4.676 9.925-1.924 15.652.95 20.387 4.957 9.704 6.84 13.1 14.074 19.265 21.135"></path>
        <path d="M192.556 44.328c-2.466.302-5.238 1.623-7.014-.374-1.59-3.77-3.35-7.305-6.172-9.352"></path>
        <path d="M187.038 45.357c-3.951-1.481-7.508-2.173-9.726-.187"></path>
        <path d="M174.133 45.73c-2.805 3.103-1.8 7.97-6.453 11.13"></path>
        <path d="M193.398 44.141c2.949-1.053 6.06-.97 9.258-.28 3.928 1.575 7.856 2.562 11.783 2.15 3.367-.273 6.853-.396 9.259-1.87 2.02-1.23 3.768-2.88 7.949-.748 2.894 1.638 5.733 3.11 8.136 3.273 5.857.946 7.537 3.177 10.38 5.05"></path>
        <path d="M247.732 51.155l3.741 1.683c.815.756 2.407 1.29-.093 2.993l-3.554-.094"></path>
        <path d="M251.286 56.018c1.38.497 2.29 1.067.468 2.057h-2.712"></path>
        <path d="M251.286 58.356c2.458.748 1.377 1.496-.094 2.244l-2.712-.467"></path>
        <path d="M251.286 60.507c.556.703 2.504 1.493-.655 1.964l-3.086-1.029"></path>
        <path d="M249.977 62.751c1.738.868 3.038 1.716-.374 2.338-2.165-.632-3.29-1.784-4.49-2.899-.674-1.006-2.226-2.11-5.143-3.366-4.564-2.65-8.435-4.146-11.503-4.302-3.214.315-5.529-.492-7.762-1.403-3.824-1.465-7.804-1.524-11.877-.748-6.25 3.058-9.013 3.559-11.596 3.928-5.228.474-9.86 1.426-13.84 2.899-3.34 1.585-6.686 3.134-10.756 1.309-1.441-.725-2.827-1.844-4.02-4.302"></path>
        <path d="M169.83 59.478c-8.73-6.745-13.194-17.245-15.71-29.458"></path>
        <path d="M161.788 51.81c-3.385-2.063-6.89-3.839-9.071-8.791.219-4.352.717-7.77 1.683-9.633"></path>
        <path d="M167.68 58.45c-7.562-.757-14.97-1.974-21.79-4.957-5.466-.635-9.74-.077-13.467 1.029"></path>
        <path d="M121.949 48.35c4.362.402 8.246 1.815 10.38 6.92 9.077 10.139 3.06 8.806.375 10.006-12.318-2.909-23.295-2.8-34.696-3.647"></path>
        <path d="M130.833 65.463c-12.126 4.316-24.2 8.907-37.781 5.705-7.81-.962-14.678-.28-21.51.468-8.549 2.534-14.732-3.32-20.574-10.38"></path>
        <path d="M73.787 61.068c-6.349.637-12.858 3.847-18.985.935"></path>
        <path d="M50.126 60.133c-3.242-.412-6.484-2.237-9.726-4.115-3.093-3.89-4.333-7.484-1.215-10.38 2.916-1.365 5.853-2.832 9.258-6.64 1.74-2.435 3.77-4.69 7.481-5.892"></path>
        <path d="M50.594 56.766c-7.771-.654-9.336-4.287-11.035-7.855 3.945 2.462 7.893 4.912 12.812 2.992"></path>
        <path d="M203.484 43.067c6.63-1.319 13.224-2.116 19.576.74"></path>
        <path d="M246.55 47.935c2.475-.356 4.316-2.298 8.36 1.27 2.973 2.797 6.033 5.986 8.465 6.348 3.038.267 6.434 4.827 9.735 8.254 1.027 2.504-.253 3.525-3.174 3.492l-2.222-2.222"></path>
        <path d="M269.195 66.876c-.09 1.082.162 2.54-2.645.634l-1.376-1.693"></path>
        <path d="M265.81 66.876c.422 1.693-.142 1.975-1.694.846l-5.185-3.069"></path>
        <path d="M189.304 40.74l85.711 1.163"></path>
        <path d="M275.862 45.607l.211-13.122c.937-1.212 2.135-1.814 3.915-1.058l16.931 12.698c3.686 2.629 3.672 5.344 3.492 8.36l-.106 45.818"></path>
        <path d="M276.073 31.321c1.142-1.732 2.632-3.185 7.936-1.587l18.412 13.016c5.478 4.091 4.698 8.183 4.762 12.274l-1.27 42.538"></path>
        <path d="M275.333 45.395l24.972 26.03"></path>
        <path d="M249.725 45.818l2.328-2.116c1.382-.751 2.65-1.706 5.397 0l19.047 12.275c6.437 5.454 3.116 8.554 1.693 10.052l-3.81.212"></path>
        <path d="M271.735 60.21c1.94-2.75 3.88-3.875 5.82.105 1.015 2.99.044 3.744-1.164 4.233"></path>
        <path d="M253.429 56.188c3.45-.46 4.173 2.083 4.867 4.656 2.842 6.588-1.142 5.072-2.328 6.878-35.587-1.948-57.574 3.124-85.393 5.185-3.008-4.691-5.656-9.382-6.984-14.073l-1.058-.953"></path>
        <path d="M299.634 73.385c-40.967-1.82-81.934-.882-122.9-.254"></path>
        <path d="M166.322 72.623c-16.581-.643-32.93-.356-49.262 0"></path>
        <path d="M58.403 70.846c-13.881-1.03-27.762-.206-41.644.761 6.203-6.409 11.92-13.304 19.299-18.536"></path>
        <path d="M50.024 34.534V16.76c.253-4.387-1.013-6.281-4.317-4.824l-24.885 14.22c-7.68 4.957-5.808 8.96-6.348 13.204l-.254 56.118"></path>
        <path d="M45.199 10.665c-2.629-1.066-7.27.552-13.712 4.57l-16.251 9.142C6.9 29.24 9.23 34.791 8.126 40.12L8.38 94.97"></path>
        <path d="M299.378 85.264L14.635 84.31"></path>
        <path d="M16.862 92.263l280.607 1.91"></path>
      </g>
    </svg>