<?xml version="1.0" encoding="UTF-8" standalone="no"?>
<svg
      xmlns="http://www.w3.org/2000/svg"
      width="1216"
      height="404"
      version="1.1"
      viewBox="0 0 321.733 106.892"
      xmlSpace="preserve"
    >
      <g fill="none" stroke="#000" strokeWidth="1.323">
        <path d="M58.763 39.637c-1.12-2.55-2.641-4.964.126-8.809.813-5.804 2.548-9.533 6.04-9.311 3.105-1.122 6.373-1.436 9.814-.88 3.886-2.173 7.38.358 10.947 2.012 5.055-.334 5.591 3.03 7.173 5.537"></path>
        <path d="M94.373 27.934c-2.202.777-4.971.985-8.18.755-1.027-1.389-2.18-2.558-4.53-1.635-1.958 2.809-2.481 3.106-3.145 3.649-1.796.744-3.967-.013-5.159 3.145.518 1.681-.066 3.141-2.894 4.153-3.44 1.971-2.735 3.942-2.642 5.914"></path>
        <path d="M84.558 29.193c-1.566-.363-2.587.363-3.146 2.013"></path>
        <path d="M86.445 31.458c1.972 2.694 3.943 5.5 5.914 5.914 1.56 2.638 4.313 5.737 1.762 6.794"></path>
        <path d="M77.511 33.093c-.653 1.804-1.582 3.608-.629 5.411"></path>
        <path d="M78.518 38.252l2.265 2.014c-.195-2.287-.293-4.72-1.132-6.04"></path>
        <path d="M78.015 42.908l-2.391 2.643"></path>
        <path d="M78.644 44.796v2.013"></path>
        <path d="M79.147 43.411l2.391 1.888c2.471 2.53 2.736 1.017 3.272 0"></path>
        <path d="M83.929 42.782l.377-2.139"></path>
        <path d="M87.83 41.02c-.302 1.959.532 4.598-1.259 5.663"></path>
        <path d="M89.591 42.782l-.251 3.65"></path>
        <path d="M94.75 45.928l1.888-3.9c1.301-2.055 2.463-4.18 1.132-7.55-1.595-1.902-1.254-3.159-.88-4.405l-3.02-3.649c.922-3.261 1.845-4.042 2.768-5.033 1.324-4.608 3.08-8.352 5.41-10.947 3.674-.815 7.232-1.745 10.57-2.894 4.95.927 9.899-.69 14.848-2.391-2.084 2.726-2.553 5.453-2.642 8.179"></path>
        <path d="M127.34 6.166c3.99-.897 7.919-1.17 11.577 1.258 5.941 1.318 3.194 3.463 2.516 5.41.169 6.007-3.813 8.28-6.795 11.451-5.66 4.565-11.282 9.039-14.973 8.683.797 3.397-.313 6.794-5.537 10.192.301 2.642.652 5.285-1.007 7.927-.545.876-1.022 2.512-1.887-.126l-1.132-6.417"></path>
        <path d="M111.36 51.968c-.504 4.146-1.305 2.634-2.14.503l-1.258-7.172"></path>
        <path d="M109.347 52.471c-.332 1.777-.627 3.7-2.265.252l-1.007-7.55"></path>
        <path d="M105.95 48.445c-.174-2.93-2.42-4.744 1.383-9.815 1.98-.177 3.19-3.43 4.53-6.166 2.839-2.51 6.476-4.723 6.795-8.179 1.077-7.48 6.938-10.174 11.828-13.841"></path>
        <path d="M100.664 50.961c-1.98-.705-2.893 1.079-3.9 2.643 4.981.384 7.603 2.539 9.94 4.907.658 3.63-.28 6.017-2.642 7.298-4.587 2.849-9.425 3.425-14.345 3.272-7.715.753-11.875-1.606-17.113-3.02-4.021.226-8.124.859-11.828-.503-3.552-.231-7.094-.54-10.318-3.398l-3.397-3.02c-.548-1.54-1.682-3.568 1.635-1.887l2.014 2.139c3.1 1.078 3.401 1.756 4.278 2.517 3.146 1.386 6.291-.494 9.437-1.636"></path>
        <path d="M48.822 57.379c-.092-1.116-.917-3.344 1.51-.63l6.04 3.02-1.51-2.013c-1.005-1.144-1.835-2.212 1.762-1.384 2.352 1.662 4.992 1.881 7.675 1.887 2.097-.389 4.195.755 6.292 2.014 5.783.084 11.603.33 16.735-2.517 3.08-1.262 5.8-3.005 9.815-3.02"></path>
        <path d="M141.666 14.976c5.631.556 10.99.622 14.842-2.024 9.183-2.627 14.753.025 19.293 4.183 8.79 8.35 16.869 16.448 14.707 20.913-1.26.97-2.519 1.521-3.778 0-1.778-2.848-4.588-.538-7.016-.135-2.227 5.18-3.053 11.481-6.88 15.38-3.042-3.833-6.155-7.342-8.5-14.301 1.238-5.322 2.947-10.75 1.078-15.38"></path>
        <path d="M172.698 53.294c1.503 3.669 7.07 3.273 12.413 3.103 7.86-1.02 15.074-3.12 21.857-5.937 4.901-2.361 11.392-3.531 17.675-4.857 5.598 1.65 11.139 3.29 14.976 4.587 2.698 2.609 5.756 4.318 9.174 5.127 1.704.89 3.598 1.986 2.024-.674l-1.889-1.89"></path>
        <path d="M190.373 38.317c3.225-1.057 8.423-1.325 15.246-.944 6.561 1.507 13.16 2.833 20.778-.944 3.987-1.26 8.087-3.865 11.738-1.08 3.103 2.382 6.206 5.013 9.31 5.667 3.219 1.574 4.646 3.148 4.991 4.722 2.758 2.37 1.755 2.79.81 3.238l-2.294-.81"></path>
        <path d="M253.38 49.111c1.86 1.016 1.195 1.432.136 1.754l-2.969-1.08"></path>
        <path d="M253.246 51c2.384 1.876.825 1.616 0 1.754l-3.508-1.484"></path>
        <path d="M253.11 53.294c.665 1.487.22 2.206-.944 2.428l-2.023-2.428"></path>
        <path d="M189.158 31.571c4.787-.024 4.42 2.897 4.318 5.667"></path>
        <path d="M196.89 36.656c7.094-1.278 14.033-3.1 21.73-2.269 3.569-2.348 7.194-4.633 13.254-4.179 6.887-.677 8.994 1.035 11.582 2.507 6.91 2.508 8.537 5.015 10.865 7.523 6.336 8.97 2.485 13.089 2.866 19.223-1.732 2.475-3.358 4.998-12.537 4.06-7.265-.142-10.525 1.9-14.448 3.582-6.354 3.76-12.335 1.555-18.387.477-7.858-2.445-11.993-1.167-17.194-.955-5.484 2.17-10.058 3.016-12.06.12-1.947-5.404-3.057-7.037-4.417-9.791"></path>
        <path d="M253.008 57.67c3.13 4.714-20.587 2.467-32.716 3.224-7.736 2.625-14.015 1.606-20.537 1.194"></path>
        <path d="M253.843 38.924c2.923 1.835 5.97 4.293 8.597 4.657 4.725 1.951 9.437 4.049 13.85 9.432.372 1.56 1.546 3.551-2.03 2.985l-4.178-2.268"></path>
        <path d="M272.947 55.76c1.387 2.54 1.001 3.309-1.432 2.03l-3.105-1.433"></path>
        <path d="M270.56 57.67c.5 1.17 2.196 2.894-1.195 2.269l-3.701-1.91c-1.542-1.333-3.575-2.481-7.642-2.866"></path>
        <path d="M259.455 41.551l13.134.358 33.193 31.88-.477 12.776"></path>
        <path d="M276.53 45.014v-8.717c.355-3.985 1.991-4.77 4.895-2.388l26.029 19.224.358 48.476"></path>
        <path d="M278.917 32.118c2.158-1.743 5.468-2.087 12.06 1.553l18.626 11.7c3.957 3.942 7.61 8.225 6.567 17.791l-1.433 37.253"></path>
        <path d="M140.93 17.226c3.781 1.688 10.662 1.826 16.976 2.247 2.727.45 5.486.8 5.617 9.362.102 8.488 1.278 16.976-.749 25.465.061 8.707-1.892 11.553-5.492 9.611-2.497-2.88-4.993-3.085-7.49-3.744"></path>
        <path d="M154.286 62.788c-16.012.923-31.999 1.283-47.684-4.993"></path>
        <path d="M121.581 16.227l-15.977.625c-5.966-2.088-2.288 2.93-2.622 4.993 1.098 5.321-.362 10.217-1.123 15.229-2.419 5.2-.551 10.402.125 15.603-2.166-2.992-3.596-7.212-7.615-7.115-6.443 3.625-13.643 1.949-20.721 1.123"></path>
        <path d="M81.137 49.307c-5.914-2.276-10.998-1.855-18.1-7.99l-4.868-.873c-2.7-1.149-4.017-2.39-1.747-3.87"></path>
        <path d="M56.297 34.702c-4.37.914-6.947 3.622-7.989 7.864-3.288 2.85-11.525 6.525-5.742 7.864 2.209 1.78 5.803 2.912 12.982 2.372 5.28 1.198 10.774 2.307 19.972 1.872 5.5 1.046 11.225 3.674 16.103.375"></path>
        <path d="M43.265 51.25l2.97 5.384"></path>
        <path d="M49.578 36.209l.371-17.826c.172-2.54.89-5.682-3.713-2.971L24.51 26.367c-9.811 5.076-7.24 10.151-8.355 15.227l-.929 56.82"></path>
        <path d="M48.65 13.555c-2.082-2.093-5.905-1.865-10.956 0L15.412 24.139c-4.825 2.028-6.183 6.893-5.57 13.37l-1.3 59.79v0"></path>
        <path d="M40.48 50.135L16.711 72.417l6.127 12.998"></path>
        <path d="M17.255 71.32c96.117 2.998 192.233 3.65 288.35 1.534"></path>
        <path d="M306.372 86.658l-291.034-.766"></path>
        <path d="M15.338 93.56l292.184 1.534"></path>
        <path d="M162.422 59.608c5.702.14 11.404-.16 17.106 1.763"></path>
      </g>
    </svg>