<?xml version="1.0" encoding="UTF-8" standalone="no"?>
<svg
      xmlns="http://www.w3.org/2000/svg"
      width="1094"
      height="560"
      version="1.1"
      viewBox="0 0 289.454 148.167"
      xmlSpace="preserve"
    >
      <g fill="none" stroke="#000" strokeWidth="1.323">
        <path d="M128.363 101.594c-9.874.016-20.989-1.208-32.575-2.903-7.153-1.172-12.842.098-17.416 3.225-10.712.782-20.782.283-30.64-.645-5.203-1.011-7.55.834-9.352 3.225-2.473 1.435-4.946 4.289-7.418-4.193L23.866 83.21c1.04-5.051 3.805-4.926 7.418-2.258 2.744 9.037 7.153 13.742 14.191 11.611 8.05-.525 16.08-1.08 21.609-5.805 5.268-1.644 10.536-2.846 15.803-1.935"></path>
        <path d="M106.109 79.662l-5.806 9.998c-1.638-1.384 1.62-7.177-7.74-1.612-3.537 1.28-5.38.864-3.87-2.903-5.743.713-2.867-1.96-1.935-3.87l12.578-3.87c.757-3.26 1.971-4.461 3.225-5.483"></path>
        <path d="M213.508 83.21c-3.508 13.874-14.186 17.97-27.092 19.029-10.837.042-22.185-.937-32.252.645-8.278 2.95-16.556 3.242-24.834-3.226-5.34-4.336-12.185-11.684-20.964-22.898-4.79-10.42-11.645-9.486-18.06-10.966-11.82 1.279-20.238-3.11-29.672-5.805 1.512-3.763 2.77-7.526 6.773-11.289 14.438 3.269 25.331 1.81 37.412 1.936 13.324 9.44 26.901 19.64 37.734 21.608 19.15 12.47 8.506 18.461 9.999 27.092"></path>
        <path d="M59.344 56.763c-2.775-2.986-6.384-2.63-9.999-2.257-3.432-1.348-3.323-4.467-1.612-8.386 3.266-3.332 1.801-6.665 0-9.998-.66-4.56.77-6.509 3.548-6.773 3.541-4.708 4.822-1.503 6.772-.645l.323 15.159 5.16 5.805"></path>
        <path d="M62.96 77.516c8.142-23.498 19.504-39.346 34.865-45.697l1.354 6.093 3.724-10.494-11.847 1.693 5.415 2.37"></path>
        <path d="M144.876 71.084c4.613-.648 9.08-2.17 14.556 2.37 5.531 4.538 10.25 1.758 14.894-1.693"></path>
        <path d="M199.374 86.994c-6.695-2.93-13.51-4.78-19.971-9.817-1.212-1.53-2.758-3.618-4.739-6.431-7.123-2.727-11.318-7.284-16.586-11.17l-9.14-2.709c-4.127.31-7.892-.469-11.508-1.692-1.808-1.425-2.028-3.14-1.016-5.078 2.048-2.035 4.195-4.032 11.509-4.062 2.737 3.608 9.51 6.71 16.248 9.817l10.493 3.046c1.461.225 3.443 1.543 7.447 7.109 2.856.72 5.778 1.74 9.14 4.739 3.31-1.047 7.01-.147 10.831 1.354"></path>
        <path d="M216.564 83.659c11.297 5.8 17.353-1.061 17.672-9.19.318-8.128-3.662-14.339-12.182-11.847-4.212 2.21-9.985 3.994-13.202 2.708-6.07-1.391-3.49 5.247-1.692 7.108"></path>
        <path d="M199.374 66.684c-5.278-6.28-9.832-14.233-18.278-13.202"></path>
        <path d="M183.465 63.976c-4.225-6.77-7.14-13.54-8.8-20.31"></path>
        <path d="M195.312 58.56c-2.947-5.876-3.22-12.755-9.816-17.263-1.33-3.124-2.145-7.107-2.708-11.51-3.14-1.671-6.585-1.914-10.493 0"></path>
        <path d="M165.863 52.467c-2.377-2.784-4.65-6.09-6.77-10.155-3.497-1.026-8.011-1.946-10.155-7.108-2.143-5.162-2.208-10.937 1.747-15.667 2.629-2.582 5.977-3.493 10.343-3.19 4.623-.11 8.275 1.36 9.574 11.41-.603 7.637-3.142 10.674-5.754 13.54l-5.416 1.015"></path>
        <path d="M147.584 30.803c-2.957 2.041-5.984 4-7.447 7.786-5.255.74-9.18 5.316-12.47 7.531-4.225 3.93-8.963 7.767-10.493 12.186"></path>
        <path d="M174.326 55.513c5.817-10.043 9.57-20.719 27.418-27.08l2.37 6.094 4.4-11.17-13.54 1.015 6.431 3.046"></path>
        <path d="M181.096 26.741a21.587 21.587 0 012.03-9.478l.339-5.754c-1.467-1.057-2.934-2.27-4.4-.339-2.262-2.861-3.403-1.688-4.4 0-1.978-2.616-3.613-1.822-5.078.677l-.677 5.755c2.783 3.197 4.583 6.787 6.093 10.493"></path>
        <path d="M70.746 82.255L36.219 85.3"></path>
        <path d="M20.987 85.978l-13.202 2.37"></path>
        <path d="M144.538 134.045c19.713.801 40.51 1.197 67.36-.677 13.766-3.377 27.532-6.78 41.297-5.755 14.141-5.423 27.787-4.892 32.157-7.108-4.948-5.303-10.286-10.607-12.524-15.91"></path>
        <path d="M181.096 145.892c17.707 1.002 34.756 2.287 58.56.677 11.594-2.284 22.53-5.227 37.572-4.062 5.177-.802 9.524-2.314 8.463-8.462.215-6.614-.012-10.496-2.031-13.202"></path>
        <path d="M272.828 102.226c-2.097 5.816-7.073 4.433-12.186 2.708"></path>
        <path d="M258.95 99.518c5.228 7.634-10.09 6.896-17.264 9.478-13.497 3.416-19.146.444-21.663-5.078l-7.109-10.493"></path>
        <path d="M220.023 104.934c7.107-6.296 18.935-5.884 30.803-5.416l19.294-.677c-3.913-9.552-12.367-15.86-19.633-23.018-4.5-4.734-8.998-9.468-10.493-13.201-4.174-1.24-6.658-.79-8.801 0"></path>
        <path d="M157.18 70.744c-3.14-3.662-5.755-7.585-6.175-12.606"></path>
        <path d="M139.172 54.537c-4.63 5.57-8.314 8.307-11.576 9.775"></path>
      </g>
    </svg>