<?xml version="1.0" encoding="UTF-8" standalone="no"?>
<svg
      xmlns="http://www.w3.org/2000/svg"
      width="714"
      height="640"
      version="1.1"
      viewBox="0 0 188.912 169.333"
      xmlSpace="preserve"
    >
      <g fill="none" stroke="#000" strokeWidth="1.323">
        <path d="M131.09 150.23c2.13 3.32 1.44 6.641-1.31 9.962l-6.817-1.573c-4.48-.682-8.412-.926-11.536-.524-3.195-1.573-2.145-3.146-.525-4.72l6.817.525c3.57-1.123 6.962-2.278 7.603-3.933"></path>
        <path d="M129.78 147.345c-2.466 2.184-4.092.45-5.769-1.048 1.163-7.809 4.026-14.767 7.341-21.5l3.671-13.632c1.475-9.48 3.737-17.58 6.292-25.17v-8.39"></path>
        <path d="M131.877 147.608l4.805-3.381c3.866-2.819 4.324-5.853 6.73-8.417"></path>
        <path d="M154.424 98.318l-7.079 16.78c-2.348 5.654-4.275 11.6-3.146 19.663-.268 5.593 1.039 11.186 2.36 16.78l4.72.262c3.015-5.31 5.942-10.662 5.243-17.829 2.557-6.117.953-12.235-1.311-18.352l6.554-20.975c4.046-9.825.464-17.918-1.048-26.48l-10.75-19.664c-3.585-7.791-7.63-14.154-13.633-14.42l-7.603 9.177c-3.846 4.067-7.691 5.083-11.536 6.554l4.719 9.963 9.7-8.39"></path>
        <path d="M126.371 56.107c4.312 7.091 7.561 13.903 16.78 22.285 6.443-.18 12.703-3.858 18.877-9.176"></path>
        <path d="M150.492 152.065l2.097 5.505c1.072 7.162-2.232 7.24-6.817 5.244-2.709-.046-5.418-.184-8.127-2.622-2.623-.877-4.984-.449-7.341 0"></path>
        <path d="M145.248 151.278c-1.744 4.418-5.978 5.724-12.06 4.72"></path>
        <path d="M136.858 32.773c3.642-1.636 3.782-5.138 3.409-8.915-1.225-6.56-4.196-9.105-8.128-9.438-5.907-1.62-9.676.378-12.06 4.72-.61 4.156-.281 8.18 2.884 11.797 2.41 4.773 6.173 5.652 10.75 4.195"></path>
        <path d="M119.817 60.302c-5.067.076-9.896-1.036-14.42-3.671l-11.012-1.049c-.951-1.056-2.848-1.125-.65-3.463-2.005.685-3.809.41-2.496-2.305-.297-1.378-.794-3.494 3.155-2.48.627.16-3.227-1.896-.01-3.55 3.41 1.594 6.328 1.519 9.797 5.107 4.052 1.985 8.71 2.213 13.538 2.234"></path>
        <path d="M155.735 144.724c2.91-.004 7.067 1.86 11.012 3.408 3.79.468 4.656-1.985 5.243-4.72 1.307-1.295 1.94-2.63-1.31-4.194-4.722-.869-10.373.12-13.634-3.67"></path>
        <path d="M156.522 118.506l5.506 2.884 5.243-8.652-8.39-8.39"></path>
        <path d="M163.338 120.603c3.234 2.931 6.468 4.236 9.701 4.457 2.36 1.422 4.72 2.04 7.079 1.835 1.339-1.573 1.892-3.146.262-4.719.46-1.261 2.043-2.42-.262-3.933l-13.371-4.719"></path>
        <path d="M137.12 101.464c-5.675-8.867-14.355-11.39-24.907-9.963"></path>
        <path d="M139.742 90.19c-11.516-4.831-22.145-11.947-35.394-12.322"></path>
        <path d="M130.042 116.67c2.685-7.84-9.897-8.351-20.188-9.963-10.07 2.004-18.26-3.516-26.48-8.914"></path>
        <path d="M103.3 55.844l1.834 21.5-11.798-1.312-1.573-7.34"></path>
        <path d="M103.037 77.605L88.879 93.336c-5.483 2.496-6.451 6.729-8.652 10.487-2.029.912-5.332 2.656-4.103-1.224.117-.371-2.422 2.975-3.938 1.064-1.962 1.327-3.216.706-2.2-2.362.147-.445-2.51.119-3.13-1.935 6.847-3.283 13.64-6.634 17.304-13.895 2.38-4.378 6.346-5.98 9.7-8.652"></path>
        <path d="M77.965 92.096c-5.182-4.725-12.002-11.01-15.042-18.948l-3.932 7.866-9.701-7.341c3.772-6.293 6.792-12.585 12.585-18.877 4.544-3.323 9.089-6.173 13.633-7.341"></path>
        <path d="M79.965 51.912c-1.573.193-3.146-.13-4.72-2.36 1.214-3.146 2.234-6.292 1.312-9.438-2.801-13.09 3.018-15.097 11.536-13.634 7.458-.58 8.217 5.106 7.34 12.323-2.359 4.079-4.719 8.73-7.078 9.963-2.655 1.768-5.22 2.28-7.603.262"></path>
        <path d="M49.654 74.592c-3.108 5.01-3.691 10.807-2.462 17.171l3.933 12.585c1.697 4.224 3.04 4.36 4.195 2.36 1.214 1.52 2.456 3.452 3.408 1.31 2.069 1.862 2.995 1.692 2.622-.786 1.886.55 3.43.82 1.049-2.098 4.503-.126 3.475-1.936 1.835-3.932-6.672-.576-7.815-4.934-7.673-10.91.598-3.587.358-5.49 1.878-9.502"></path>
        <path d="M46.406 67.118c-9.871 4.466-18.77 10.876-26.742 19.14 6.841 1.448 13.364 2.258 22.023 7.34"></path>
        <path d="M19.664 86.52c6.225 7.223 14.36 12.81 24.382 16.78l-34.083 1.572 15.73-12.06"></path>
        <path d="M9.7 105.134c-1.303 6.468-2.667 12.935.525 19.402 39.327 2.191 78.654-2.778 117.981-4.195"></path>
        <path d="M64.234 107.494c10.35.79 20.597.363 30.675-2.097"></path>
        <path d="M161.765 104.086l24.908-1.311"></path>
        <path d="M130.828 64.759l-8.128 8.127-11.011 6.293"></path>
        <path d="M124.798 57.68l-5.768 9.963-12.585 6.292"></path>
      </g>
    </svg>