<?xml version="1.0" encoding="UTF-8" standalone="no"?>
<svg
      xmlns="http://www.w3.org/2000/svg"
      width="636"
      height="754"
      version="1.1"
      viewBox="0 0 168.275 199.496"
      xmlSpace="preserve"
    >
      <g fill="none" stroke="#000" strokeWidth="1.323">
        <path d="M105.258 181.634c.77 1.637-.565 4.063 10.27 1.926l10.268-1.605c5.596 1.078 8.1-.566 5.456-6.739l-.963-7.06-9.948.963c-1.212 5.444-10.044 8.347-15.083 12.515z"></path>
        <path d="M131.252 169.44l-2.568-15.083-3.209-30.486c13.394-3.935 25.599-9.06 33.054-18.934 3.881-4.172 4.2-8.344 3.85-12.515"></path>
        <path d="M143.446 91.138c-6.494 6.94-13.194 13.262-20.538 17.65-9.07 4.553-11.872 9.676-11.553 15.083.81 5.785 1.447 11.545 4.493 17.65-.924 5.562-.087 11.124 1.284 16.687 2.229 3.85 3.607 7.702 3.53 11.553"></path>
        <path d="M165.91 91.459c-10.46.173-21.275 1.915-30.166-4.814 6.086-6.894 4.404-15.268 3.851-23.426"></path>
        <path d="M144.73 60.652c-4.254 2.66-8.573 5.077-13.8 4.172-3.82-5.323-4.76-11.056-6.418-16.688 8.183-.167 16.794 4.379 24.39-2.246l14.12 2.888c3.195 4.643 2.56 16.253 2.246 27.277.214 10.148.428 11.617.642 16.046"></path>
        <path d="M137.349 89.213c-6.338 6.551-14.763 12.408-16.366 20.538"></path>
        <path d="M128.042 60.973c-8.184 3.1-17.446 4.044-27.277 3.85-16.76-2.69-17.741-5.14-24.71-5.455l-9.948-2.888c.098-1.2-4.058-2.623 1.605-3.53-.415-2.009-2.6-4.949 2.888-3.851-1.925-4.171.938-3.235 3.85-2.246 2.272.197 6 2.582 10.912 6.739 4.205 2.843 11.173 2.004 18.291.962 7.274-2.275 14.548-4.486 21.822-2.567"></path>
        <path d="M130.61 84.078c-8.142-6.975-16.79-10.414-26.636-5.455l3.851 5.455c-4.813-1.304-9.627-1.66-14.44 1.284 2.952-3.366 5.965-6.712 6.418-10.911l4.171 2.246"></path>
        <path d="M105.213 179.73c-3.342.67-6.684.313-10.026-1.981-6.553-.484-5.128-3.627-5.075-6.313l2.6-10.274 7.179.62c3.242 5.687 7.98 12.69 14.11 13.244"></path>
        <path d="M93.454 161.162v-9.655l3.342-19.433 2.352-14.606"></path>
        <path d="M98.53 122.543c-8.343-2.155-15.873-5.237-21.91-10.027-11.925-5.084-17.43-12.223-21.166-19.928l28.222-1.114c7.355 2.9 14.634 6.57 21.661 12.75l11.264 8.54"></path>
        <path d="M55.701 91.35c3.892-11.74 4.77-25.26 15.349-33.05"></path>
        <path d="M83.304 90.36c3.153-4.099 5.83-8.476 5.075-14.854 1.855-5.342 5.465-8.577 8.912-12.007"></path>
        <path d="M115.982 171.312c-3.893.02-7.082-2.95-9.655-8.54 3.792-4.124 6.213-9.053 7.675-13.864"></path>
        <path d="M101.624 161.781c5.135-6.583 9.347-14.089 12.502-22.652"></path>
        <path d="M74.763 46.17c4.332-3.773 8.089-9.602 14.607-5.57"></path>
        <path d="M85.161 36.887c-8.84-4.515-5.97-10.57-4.456-16.34 3.564-6.466 11.71-6.963 14.977-1.856 2.6 4.539-.33 8.417.99 11.759 1.36 4.33-1.199 6.311-6.436 6.684"></path>
        <path d="M81.695 50.379c.222-3.92 3.208-6.305 10.026-6.56 5.642-3.157 11.812-3.322 18.444-.867 2.58 4.034-.314 7.226-1.733 10.645"></path>
        <path d="M110.412 43.076c5.253-2.056 15.214-2.442 30.698-.867 3.9.315 7.992-.013 12.873-2.97l6.189-4.085c4.263.47 3.386 2.775 3.218 4.827 2.618 3.398 1.511 5.866.248 8.293l-10.645-2.97-2.228.371"></path>
        <path d="M92.808 36.969c4.433 2.292 8.055 3.608 14.757 3.631"></path>
        <path d="M157.456 35.48l-2.888-.826c.953-3.1 2.566-7.013.55-11.551-2.155-7.873-5.843-8.57-11.827-7.564-9.864 1.84-10.22 7.315-7.7 13.89 2.108 5.298 4.888 8.36 7.013 9.625 2.658 2.198 3.702.362 4.95-.962"></path>
        <path d="M49.206 160.83l-9.112-3.645-1.367-51.028L13.668 86.11l8.201-2.734L48.75 103.88z"></path>
        <path d="M38.271 106.157l9.112-1.823"></path>
        <path d="M37.816 121.648l-23.692-17.77 13.668-5.01"></path>
        <path d="M39.182 95.222L52.851 89.3"></path>
        <path d="M55.584 71.986L52.851 48.75 9.568 59.23l.911 45.104-.911 37.816 9.112 2.278-1.822-35.537"></path>
        <path d="M49.661 122.103l25.059-6.834 4.1 22.78 6.834 1.367-.91-20.502"></path>
        <path d="M57.862 77.91l-6.378-3.646 5.012-3.645 3.644.912"></path>
      </g>
    </svg>